<mxfile host="app.diagrams.net" modified="2023-07-19T07:33:40.734Z" agent="Mozilla/5.0 (Windows NT 10.0; Win64; x64) AppleWebKit/537.36 (KHTML, like Gecko) Chrome/91.0.4472.77 Safari/537.36" etag="IvI7C4gHy54gmrauJpU8" version="21.6.3" type="github">
  <diagram name="第 1 页" id="PbC_2C6NFUbbkN98WZid">
    <mxGraphModel dx="1050" dy="524" grid="1" gridSize="10" guides="1" tooltips="1" connect="1" arrows="1" fold="1" page="1" pageScale="1" pageWidth="1920" pageHeight="1200" math="0" shadow="0">
      <root>
        <mxCell id="0" />
        <mxCell id="1" parent="0" />
        <mxCell id="U0jA1PSBCxF5mqMECEca-1" value="" style="html=1;fillColor=#f5f5f5;fontColor=#333333;strokeColor=#666666;" parent="1" vertex="1">
          <mxGeometry x="220" y="50" width="980" height="490" as="geometry" />
        </mxCell>
        <mxCell id="U0jA1PSBCxF5mqMECEca-2" value="«c&lt;span&gt;omponent&lt;/span&gt;»&lt;br&gt;Driver Lidar" style="html=1;dropTarget=0;fontStyle=0;fillColor=#dae8fc;strokeColor=#6c8ebf;" parent="1" vertex="1">
          <mxGeometry x="480" y="259" width="360" height="221" as="geometry" />
        </mxCell>
        <mxCell id="U0jA1PSBCxF5mqMECEca-3" value="" style="shape=module;jettyWidth=8;jettyHeight=4;fillColor=#dae8fc;strokeColor=#6c8ebf;" parent="U0jA1PSBCxF5mqMECEca-2" vertex="1">
          <mxGeometry x="1" width="20" height="20" relative="1" as="geometry">
            <mxPoint x="-27" y="7" as="offset" />
          </mxGeometry>
        </mxCell>
        <mxCell id="U0jA1PSBCxF5mqMECEca-4" value="«c&lt;span&gt;omponent&lt;/span&gt;»&lt;br&gt;&lt;b&gt;ARA::LOG&lt;/b&gt;" style="html=1;dropTarget=0;fontStyle=0;fillColor=#dae8fc;strokeColor=#6c8ebf;align=center;" parent="1" vertex="1">
          <mxGeometry x="506" y="170" width="130" height="50" as="geometry" />
        </mxCell>
        <mxCell id="U0jA1PSBCxF5mqMECEca-5" value="" style="shape=module;jettyWidth=8;jettyHeight=4;fillColor=#dae8fc;strokeColor=#6c8ebf;" parent="U0jA1PSBCxF5mqMECEca-4" vertex="1">
          <mxGeometry x="1" width="20" height="20" relative="1" as="geometry">
            <mxPoint x="-27" y="7" as="offset" />
          </mxGeometry>
        </mxCell>
        <mxCell id="U0jA1PSBCxF5mqMECEca-6" value="«c&lt;span&gt;omponent&lt;/span&gt;»&lt;br&gt;&lt;b&gt;Apservice&lt;/b&gt;" style="html=1;dropTarget=0;fontStyle=0;fillColor=#dae8fc;strokeColor=#6c8ebf;align=center;" parent="1" vertex="1">
          <mxGeometry x="686" y="170" width="130" height="50" as="geometry" />
        </mxCell>
        <mxCell id="U0jA1PSBCxF5mqMECEca-7" value="" style="shape=module;jettyWidth=8;jettyHeight=4;fillColor=#dae8fc;strokeColor=#6c8ebf;" parent="U0jA1PSBCxF5mqMECEca-6" vertex="1">
          <mxGeometry x="1" width="20" height="20" relative="1" as="geometry">
            <mxPoint x="-27" y="7" as="offset" />
          </mxGeometry>
        </mxCell>
        <mxCell id="U0jA1PSBCxF5mqMECEca-8" value="" style="endArrow=open;endSize=12;dashed=1;html=1;rounded=0;entryX=0.5;entryY=1;entryDx=0;entryDy=0;exitX=0.75;exitY=0;exitDx=0;exitDy=0;fillColor=#dae8fc;strokeColor=#6c8ebf;" parent="1" source="U0jA1PSBCxF5mqMECEca-2" target="U0jA1PSBCxF5mqMECEca-6" edge="1">
          <mxGeometry width="160" relative="1" as="geometry">
            <mxPoint x="698" y="170" as="sourcePoint" />
            <mxPoint x="705" y="230" as="targetPoint" />
          </mxGeometry>
        </mxCell>
        <mxCell id="U0jA1PSBCxF5mqMECEca-9" value="" style="endArrow=open;endSize=12;dashed=1;html=1;rounded=0;entryX=0.5;entryY=1;entryDx=0;entryDy=0;exitX=0.25;exitY=0;exitDx=0;exitDy=0;fillColor=#dae8fc;strokeColor=#6c8ebf;" parent="1" source="U0jA1PSBCxF5mqMECEca-2" target="U0jA1PSBCxF5mqMECEca-4" edge="1">
          <mxGeometry width="160" relative="1" as="geometry">
            <mxPoint x="706.1600000000001" y="284.67999999999995" as="sourcePoint" />
            <mxPoint x="705" y="230" as="targetPoint" />
          </mxGeometry>
        </mxCell>
        <mxCell id="U0jA1PSBCxF5mqMECEca-10" value="«c&lt;span&gt;omponent&lt;/span&gt;»&lt;br&gt;&lt;b&gt;rslidar_sdk/ouster_sdk&lt;/b&gt;" style="html=1;dropTarget=0;fontStyle=0;fillColor=#dae8fc;strokeColor=#6c8ebf;align=center;" parent="1" vertex="1">
          <mxGeometry x="280" y="330" width="140" height="50" as="geometry" />
        </mxCell>
        <mxCell id="U0jA1PSBCxF5mqMECEca-11" value="" style="shape=module;jettyWidth=8;jettyHeight=4;fillColor=#dae8fc;strokeColor=#6c8ebf;" parent="U0jA1PSBCxF5mqMECEca-10" vertex="1">
          <mxGeometry x="1" width="20" height="20" relative="1" as="geometry">
            <mxPoint x="-27" y="7" as="offset" />
          </mxGeometry>
        </mxCell>
        <mxCell id="U0jA1PSBCxF5mqMECEca-12" value="" style="endArrow=open;endSize=12;dashed=1;html=1;rounded=0;entryX=1;entryY=0.25;entryDx=0;entryDy=0;exitX=0;exitY=0.5;exitDx=0;exitDy=0;fillColor=#dae8fc;strokeColor=#6c8ebf;" parent="1" target="U0jA1PSBCxF5mqMECEca-10" edge="1">
          <mxGeometry width="160" relative="1" as="geometry">
            <mxPoint x="480" y="342.5" as="sourcePoint" />
            <mxPoint x="563" y="66" as="targetPoint" />
          </mxGeometry>
        </mxCell>
        <mxCell id="U0jA1PSBCxF5mqMECEca-13" value="" style="endArrow=open;endSize=12;dashed=1;html=1;rounded=0;exitX=1;exitY=0.75;exitDx=0;exitDy=0;fillColor=#dae8fc;strokeColor=#6c8ebf;entryX=0.002;entryY=0.566;entryDx=0;entryDy=0;entryPerimeter=0;" parent="1" source="U0jA1PSBCxF5mqMECEca-10" edge="1">
          <mxGeometry width="160" relative="1" as="geometry">
            <mxPoint x="489.1300000000001" y="169.32000000000005" as="sourcePoint" />
            <mxPoint x="480.72" y="368.30600000000004" as="targetPoint" />
          </mxGeometry>
        </mxCell>
        <mxCell id="U0jA1PSBCxF5mqMECEca-18" value="«c&lt;span&gt;omponent&lt;/span&gt;»&lt;br&gt;&lt;b style=&quot;border-color: var(--border-color);&quot;&gt;Perception_sensor&lt;/b&gt;" style="html=1;dropTarget=0;fontStyle=0;fillColor=#dae8fc;strokeColor=#6c8ebf;align=center;" parent="1" vertex="1">
          <mxGeometry x="920" y="259" width="130" height="50" as="geometry" />
        </mxCell>
        <mxCell id="U0jA1PSBCxF5mqMECEca-19" value="" style="shape=module;jettyWidth=8;jettyHeight=4;fillColor=#dae8fc;strokeColor=#6c8ebf;" parent="U0jA1PSBCxF5mqMECEca-18" vertex="1">
          <mxGeometry x="1" width="20" height="20" relative="1" as="geometry">
            <mxPoint x="-27" y="7" as="offset" />
          </mxGeometry>
        </mxCell>
        <mxCell id="U0jA1PSBCxF5mqMECEca-50" value="«c&lt;span&gt;omponent&lt;/span&gt;»&lt;br&gt;&lt;b&gt;ARA::COM&lt;/b&gt;" style="html=1;dropTarget=0;fontStyle=0;fillColor=#dae8fc;strokeColor=#6c8ebf;align=center;" parent="1" vertex="1">
          <mxGeometry x="686" y="90" width="130" height="50" as="geometry" />
        </mxCell>
        <mxCell id="U0jA1PSBCxF5mqMECEca-51" value="" style="shape=module;jettyWidth=8;jettyHeight=4;fillColor=#dae8fc;strokeColor=#6c8ebf;" parent="U0jA1PSBCxF5mqMECEca-50" vertex="1">
          <mxGeometry x="1" width="20" height="20" relative="1" as="geometry">
            <mxPoint x="-27" y="7" as="offset" />
          </mxGeometry>
        </mxCell>
        <mxCell id="U0jA1PSBCxF5mqMECEca-52" value="" style="endArrow=open;endSize=12;dashed=1;html=1;rounded=0;entryX=0.5;entryY=1;entryDx=0;entryDy=0;fillColor=#dae8fc;strokeColor=#6c8ebf;" parent="1" source="U0jA1PSBCxF5mqMECEca-6" target="U0jA1PSBCxF5mqMECEca-50" edge="1">
          <mxGeometry width="160" relative="1" as="geometry">
            <mxPoint x="760" y="269" as="sourcePoint" />
            <mxPoint x="761" y="230" as="targetPoint" />
          </mxGeometry>
        </mxCell>
        <mxCell id="U0jA1PSBCxF5mqMECEca-53" value="«c&lt;span&gt;omponent&lt;/span&gt;»&lt;br&gt;&lt;b&gt;fsm&lt;/b&gt;" style="html=1;dropTarget=0;fontStyle=0;fillColor=#dae8fc;strokeColor=#6c8ebf;align=center;" parent="1" vertex="1">
          <mxGeometry x="920" y="411" width="130" height="50" as="geometry" />
        </mxCell>
        <mxCell id="U0jA1PSBCxF5mqMECEca-54" value="" style="shape=module;jettyWidth=8;jettyHeight=4;fillColor=#dae8fc;strokeColor=#6c8ebf;" parent="U0jA1PSBCxF5mqMECEca-53" vertex="1">
          <mxGeometry x="1" width="20" height="20" relative="1" as="geometry">
            <mxPoint x="-27" y="7" as="offset" />
          </mxGeometry>
        </mxCell>
        <mxCell id="U0jA1PSBCxF5mqMECEca-55" value="" style="endArrow=open;endSize=12;dashed=1;html=1;rounded=0;exitX=1.006;exitY=0.115;exitDx=0;exitDy=0;fillColor=#dae8fc;strokeColor=#6c8ebf;entryX=0;entryY=0.5;entryDx=0;entryDy=0;exitPerimeter=0;" parent="1" source="U0jA1PSBCxF5mqMECEca-2" target="U0jA1PSBCxF5mqMECEca-18" edge="1">
          <mxGeometry width="160" relative="1" as="geometry">
            <mxPoint x="430" y="490" as="sourcePoint" />
            <mxPoint x="491" y="490" as="targetPoint" />
          </mxGeometry>
        </mxCell>
        <mxCell id="U0jA1PSBCxF5mqMECEca-60" value="" style="endArrow=open;endSize=12;dashed=1;html=1;rounded=0;exitX=1;exitY=0.07;exitDx=0;exitDy=0;fillColor=#dae8fc;strokeColor=#6c8ebf;entryX=0;entryY=0.5;entryDx=0;entryDy=0;exitPerimeter=0;" parent="1" edge="1">
          <mxGeometry width="160" relative="1" as="geometry">
            <mxPoint x="840" y="437" as="sourcePoint" />
            <mxPoint x="920" y="435" as="targetPoint" />
          </mxGeometry>
        </mxCell>
      </root>
    </mxGraphModel>
  </diagram>
</mxfile>
